<?xml version="1.0" encoding="UTF-8"?>
<!DOCTYPE svg PUBLIC "-//W3C//DTD SVG 1.1//EN" "http://www.w3.org/Graphics/SVG/1.1/DTD/svg11.dtd">
<svg version="1.1" xmlns="http://www.w3.org/2000/svg" xmlns:xlink="http://www.w3.org/1999/xlink" x="0" y="0" width="220" height="220" viewBox="0, 0, 220, 220">
  <g id="Layer_1">
    <path d="M110,220 C49.249,220 0,170.751 0,110 C-0,49.249 49.249,0 110,0 C170.751,-0 220,49.249 220,110 C220,170.751 170.751,220 110,220 z" fill="#FFFFFF"/>
    <path d="M106.389,9.019 C101.279,9.589 97.089,10.779 93.359,12.729 C88.139,15.449 82.789,20.119 78.359,25.809 C75.319,29.719 73.859,32.969 72.799,38.219 C72.719,38.629 72.459,39.849 72.239,40.919 C71.049,46.599 70.769,48.859 70.089,58.269 C70.009,59.419 69.909,60.709 69.879,61.119 L69.819,61.869 L68.919,62.159 C67.669,62.549 66.879,63.099 66.509,63.819 C65.749,65.329 65.359,69.829 65.139,79.869 C65.089,82.289 64.969,85.169 64.879,86.269 C64.679,88.859 64.719,90.309 65.029,90.939 C65.669,92.279 67.949,93.349 69.499,93.039 C69.809,92.969 70.309,92.809 70.599,92.679 L71.119,92.439 L71.179,92.959 C71.209,93.239 71.289,94.069 71.339,94.799 C71.619,98.319 72.239,101.029 73.449,103.939 C74.469,106.399 76.839,111.209 79.139,115.509 L79.919,116.969 L80.029,126.019 C80.089,130.989 80.099,135.099 80.059,135.139 C80.019,135.179 78.899,135.659 77.589,136.209 C71.119,138.869 67.489,140.449 59.689,143.999 C43.659,151.289 30.999,157.229 29.139,158.349 C27.959,159.049 26.699,160.159 25.439,161.589 C21.979,165.529 20.881,166.609 19.217,170.56 C18.614,171.992 19.876,173.083 19.989,172.785 C20.528,171.362 21.399,168.719 21.989,167.849 C22.671,166.619 25.889,162.669 27.189,161.369 C28.479,160.079 29.429,159.429 31.819,158.239 C35.789,156.239 44.579,152.129 57.039,146.449 C59.869,145.159 62.479,143.969 62.829,143.809 C63.179,143.649 63.499,143.519 63.539,143.519 C63.579,143.519 63.649,143.709 63.679,143.939 C63.809,144.759 64.359,146.859 64.739,148.009 C65.609,150.619 66.349,151.819 69.129,155.119 C73.869,160.729 79.939,166.489 84.739,169.919 C86.959,171.499 90.889,173.859 95.159,176.159 C101.469,179.559 112.389,184.819 114.119,185.279 C114.429,185.359 115.119,185.429 115.639,185.429 C116.989,185.439 117.949,185.129 120.389,183.919 C126.629,180.829 133.119,176.689 136.789,173.469 C139.379,171.189 142.629,167.609 145.939,163.369 C146.669,162.429 147.299,161.649 147.349,161.639 C147.399,161.619 147.439,161.559 147.439,161.509 C147.439,161.469 147.989,160.669 148.669,159.749 C150.139,157.739 152.569,154.239 153.409,152.919 C154.109,151.819 155.129,149.999 155.869,148.539 C156.229,147.839 156.429,147.539 156.529,147.569 C156.619,147.609 156.649,147.559 156.609,147.419 C156.579,147.279 156.809,146.669 157.279,145.689 C157.679,144.849 158.059,144.019 158.129,143.839 C158.209,143.669 158.279,143.519 158.289,143.519 C158.439,143.519 177.729,154.969 184.039,158.799 C190.209,162.549 198.171,169.712 200.371,171.902 C200.308,171.493 201.068,170.97 200.928,170.761 C199.834,169.119 191.916,162.553 189.846,161.213 C186.846,159.263 176.239,152.749 162.689,144.769 C159.449,142.859 154.789,140.089 152.339,138.619 C149.889,137.149 146.649,135.239 145.139,134.369 C143.629,133.499 142.359,132.769 142.329,132.729 C142.299,132.699 142.299,131.929 142.349,131.019 C142.419,129.449 142.549,126.679 142.889,119.119 C142.969,117.279 143.089,114.869 143.139,113.769 C143.189,112.669 143.289,110.579 143.349,109.129 L143.469,106.479 L144.099,105.179 C145.889,101.449 146.649,98.859 147.859,92.389 L147.989,91.699 L148.439,92.099 C149.229,92.789 150.469,93.639 151.229,93.999 C151.909,94.329 152.039,94.359 152.879,94.359 C154.309,94.359 155.359,93.979 156.259,93.139 C157.289,92.179 157.589,91.089 158.029,86.769 C158.439,82.739 158.639,77.619 158.639,71.219 C158.639,67.389 158.559,66.259 158.189,64.889 C157.789,63.369 156.929,62.549 155.329,62.169 C154.069,61.879 153.149,62.019 152.169,62.669 C151.869,62.869 151.609,63.019 151.589,62.999 C151.569,62.979 151.589,62.559 151.639,62.069 C151.939,59.129 151.869,55.569 151.379,49.619 C150.649,40.599 148.879,34.329 145.559,28.919 C143.429,25.459 141.519,22.989 139.099,20.559 C136.039,17.499 133.449,15.669 129.289,13.619 C124.469,11.239 119.989,9.859 114.789,9.159 C113.399,8.969 107.709,8.879 106.389,9.019 z M114.989,10.309 C122.789,11.419 130.559,14.689 135.839,19.059 C136.949,19.979 139.619,22.639 140.509,23.719 C143.129,26.909 145.779,31.169 146.949,34.099 C147.869,36.369 148.759,39.479 149.279,42.219 C149.819,45.079 150.109,47.609 150.459,52.309 C150.869,57.959 150.709,61.899 149.819,67.769 C149.529,69.719 149.529,69.899 149.849,70.139 C150.069,70.299 150.149,70.319 150.329,70.229 C150.439,70.169 150.579,70.029 150.639,69.919 C150.739,69.739 151.229,66.529 151.399,65.039 C151.449,64.599 151.509,64.419 151.609,64.419 C151.689,64.419 151.939,64.269 152.169,64.079 C153.159,63.289 153.369,63.199 154.209,63.199 C155.169,63.199 155.999,63.489 156.489,63.979 C156.919,64.409 157.159,65.159 157.389,66.819 C157.699,69.009 157.479,80.359 157.029,85.319 C156.519,90.969 156.269,91.879 155.029,92.669 C154.179,93.219 152.579,93.389 151.789,93.029 C150.969,92.659 148.829,91.079 148.379,90.509 C148.289,90.399 148.329,89.939 148.539,88.569 C148.919,86.119 149.429,82.279 149.509,81.329 C149.559,80.689 149.539,80.529 149.399,80.389 C149.179,80.179 148.799,80.169 148.599,80.369 C148.419,80.549 148.419,80.569 148.079,83.269 C147.289,89.669 146.229,95.549 145.189,99.219 C143.139,106.449 137.999,114.039 130.389,121.079 C128.869,122.479 127.259,123.889 125.999,124.909 L125.109,125.629 L124.969,125.299 C124.859,125.039 124.849,124.919 124.949,124.719 C125.009,124.579 125.089,124.029 125.119,123.499 C125.139,122.959 125.199,122.539 125.229,122.569 C125.369,122.649 125.559,122.429 125.639,122.089 C125.679,121.889 125.689,121.429 125.659,121.069 C125.619,120.559 125.649,120.389 125.759,120.289 C125.979,120.119 126.029,119.789 125.949,119.169 C125.879,118.679 125.889,118.619 126.049,118.619 C126.399,118.619 126.469,118.259 126.249,117.609 C126.039,116.979 126.059,116.489 126.309,116.239 C126.389,116.159 126.439,115.879 126.439,115.539 C126.439,115.079 126.479,114.939 126.639,114.839 C126.859,114.699 126.899,114.169 126.749,113.489 C126.669,113.169 126.679,113.119 126.839,113.119 C127.179,113.119 127.259,112.869 127.199,112.049 C127.169,111.619 127.119,111.099 127.079,110.889 C127.029,110.589 127.049,110.519 127.179,110.519 C127.379,110.519 127.429,110.189 127.299,109.669 C127.249,109.469 127.269,109.419 127.429,109.419 C127.679,109.419 127.779,109.119 127.659,108.679 C127.569,108.359 127.579,108.329 127.769,108.299 C127.979,108.269 127.989,108.219 127.969,107.449 L127.949,106.629 L128.219,106.599 C128.459,106.569 128.499,106.509 128.579,106.079 C128.629,105.779 128.629,105.429 128.569,105.159 C128.489,104.799 128.499,104.709 128.659,104.579 C128.769,104.479 128.839,104.289 128.839,104.069 C128.839,103.869 128.909,103.609 128.989,103.479 C129.079,103.349 129.179,102.929 129.209,102.549 C129.259,101.969 129.299,101.839 129.479,101.759 C129.669,101.679 129.689,101.579 129.719,100.789 C129.739,100.019 129.769,99.919 129.929,99.919 C130.199,99.919 130.369,99.659 130.309,99.349 C130.179,98.709 130.189,98.679 130.389,98.639 C130.909,98.529 130.969,98.149 130.589,97.329 C130.449,97.029 130.349,96.779 130.359,96.769 C130.379,96.759 130.549,96.629 130.749,96.489 C130.949,96.339 131.139,96.249 131.169,96.289 C131.209,96.319 131.239,96.809 131.249,97.359 C131.259,97.919 131.289,98.639 131.329,98.969 C131.389,99.529 131.409,99.569 131.669,99.599 C131.909,99.629 131.969,99.579 132.159,99.159 C132.349,98.719 132.359,98.549 132.309,97.319 C132.269,96.189 132.219,95.859 131.989,95.269 C131.539,94.049 130.559,92.759 130.159,92.839 C129.849,92.899 129.779,93.199 129.979,93.549 C130.079,93.719 130.339,94.189 130.559,94.589 C130.909,95.229 130.929,95.299 130.739,95.249 C130.609,95.209 130.409,95.269 130.239,95.409 C130.079,95.519 129.929,95.579 129.909,95.539 C129.849,95.439 129.719,94.729 129.689,94.349 C129.659,93.889 129.159,92.939 128.859,92.749 C128.709,92.659 128.399,92.389 128.179,92.149 C127.899,91.859 127.679,91.719 127.509,91.719 C127.359,91.719 127.089,91.609 126.889,91.479 C126.619,91.289 126.469,91.249 126.309,91.309 C126.149,91.379 126.029,91.349 125.889,91.219 C125.559,90.919 125.089,90.919 124.989,91.229 C124.919,91.429 124.919,91.419 124.669,91.179 C124.389,90.899 124.149,90.849 123.969,91.029 C123.879,91.119 123.759,91.069 123.489,90.829 C123.079,90.469 122.709,90.429 122.509,90.719 C122.369,90.919 122.359,90.919 121.789,90.569 C121.139,90.179 120.979,90.149 120.749,90.369 C120.599,90.489 120.539,90.469 120.149,90.169 C119.639,89.759 119.329,89.729 119.109,90.039 C118.969,90.249 118.949,90.259 118.779,90.109 C118.409,89.789 118.149,89.709 117.939,89.819 C117.769,89.909 117.679,89.889 117.429,89.679 C117.069,89.379 116.889,89.349 116.749,89.589 C116.669,89.749 116.599,89.729 116.099,89.379 C115.709,89.109 115.489,89.019 115.349,89.069 C115.229,89.099 115.139,89.179 115.139,89.229 C115.139,89.429 114.729,89.299 113.959,88.869 C113.109,88.389 112.709,88.309 112.559,88.589 C112.469,88.739 112.419,88.719 112.089,88.429 C111.569,87.979 111.289,87.859 111.089,88.019 C111.009,88.089 110.939,88.259 110.939,88.389 C110.939,88.589 110.909,88.629 110.769,88.559 C110.669,88.519 110.429,88.479 110.229,88.479 C110.029,88.469 109.799,88.409 109.709,88.339 C109.629,88.269 109.399,88.189 109.209,88.149 C108.939,88.109 108.839,88.139 108.729,88.299 C108.589,88.489 108.579,88.489 108.189,88.169 L107.799,87.839 L108.449,87.199 C109.189,86.459 109.439,86.369 111.689,86.009 C114.009,85.649 114.339,85.509 115.219,84.579 C115.959,83.799 116.179,83.269 116.179,82.239 L116.189,81.409 L116.429,81.689 C117.479,82.929 119.309,84.659 120.459,85.489 C120.919,85.819 122.169,86.599 123.239,87.219 C124.309,87.839 125.459,88.529 125.789,88.749 C126.529,89.249 127.589,90.259 128.259,91.089 C128.859,91.839 129.199,91.949 129.109,91.359 C128.969,90.479 127.799,89.079 126.389,88.099 C125.949,87.799 124.849,87.129 123.939,86.619 C123.029,86.109 121.999,85.509 121.639,85.279 C120.669,84.669 119.099,83.359 118.089,82.299 C117.209,81.379 114.999,78.929 114.779,78.639 C114.609,78.409 114.309,78.539 114.229,78.879 C114.189,79.109 114.259,79.409 114.509,79.999 C115.049,81.309 115.169,81.929 115.039,82.569 C114.899,83.239 114.449,83.859 113.839,84.239 C113.399,84.509 112.849,84.639 110.389,85.069 C108.639,85.379 108.079,85.699 107.089,86.969 C106.579,87.619 106.319,87.859 105.909,88.059 C105.099,88.449 103.899,88.649 102.609,88.599 C100.959,88.539 100.739,88.389 99.689,86.619 C98.879,85.259 98.249,84.709 96.509,83.859 C95.339,83.289 95.089,83.059 94.889,82.389 C94.709,81.769 94.709,81.549 94.889,80.689 C94.999,80.169 95.159,79.819 95.549,79.249 C96.399,77.989 96.509,77.739 97.379,74.769 C98.519,70.839 99.909,65.559 100.249,63.829 C100.369,63.199 100.319,61.059 100.159,60.169 C100.069,59.659 99.689,59.429 99.409,59.709 C99.249,59.869 99.239,59.969 99.329,60.729 C99.389,61.189 99.439,61.719 99.439,61.899 L99.439,62.239 L98.929,61.799 C96.169,59.459 94.349,58.309 92.039,57.469 C91.519,57.289 91.139,57.129 91.189,57.129 C91.249,57.119 92.009,57.299 92.889,57.509 C95.659,58.189 96.069,58.249 97.719,58.259 C99.129,58.269 99.269,58.249 99.399,58.079 C99.619,57.769 99.569,57.529 99.099,56.599 C98.149,54.739 96.959,53.289 95.979,52.789 C93.769,51.669 84.999,49.619 82.449,49.619 C80.969,49.619 78.939,50.249 77.639,51.109 C75.789,52.329 75.149,53.359 73.949,57.059 C73.479,58.499 73.469,58.899 73.899,59.179 C74.269,59.429 74.619,59.229 75.379,58.319 C76.359,57.169 77.659,55.969 78.279,55.669 C79.449,55.099 80.569,55.109 84.289,55.769 C85.329,55.949 86.459,56.139 86.789,56.199 C87.259,56.269 87.099,56.279 86.039,56.239 C82.399,56.129 78.929,57.479 76.489,59.969 C75.199,61.289 74.569,62.419 74.669,63.279 C74.769,64.199 75.589,65.429 76.479,65.989 C77.059,66.359 79.019,67.089 80.599,67.519 C84.099,68.489 87.069,68.829 90.139,68.619 C93.219,68.409 94.649,68.139 97.029,67.289 C98.289,66.839 98.529,66.779 98.489,66.929 C98.459,67.029 98.109,68.219 97.729,69.589 C96.699,73.209 95.559,76.899 95.279,77.469 C94.869,78.299 94.379,78.909 94.159,78.849 C93.869,78.779 91.219,81.139 90.479,82.129 C90.099,82.639 90.059,82.869 90.299,82.959 C90.519,83.039 90.779,82.819 92.519,81.149 C93.299,80.389 93.909,79.839 93.879,79.919 C93.719,80.299 93.619,81.139 93.659,81.879 C93.709,82.849 94.049,83.649 94.609,84.109 C94.809,84.279 95.489,84.669 96.119,84.989 C97.459,85.669 97.939,86.049 98.459,86.859 C98.769,87.339 98.819,87.469 98.699,87.539 C98.619,87.579 98.439,87.829 98.289,88.079 C98.039,88.499 98.009,88.519 97.849,88.379 C97.559,88.109 97.269,88.189 96.919,88.629 L96.599,89.029 L96.409,88.779 C96.129,88.389 95.629,88.429 95.109,88.869 L94.699,89.219 L94.459,88.919 C94.119,88.479 93.749,88.509 93.189,89.029 C92.839,89.349 92.739,89.399 92.739,89.269 C92.739,88.989 92.439,88.719 92.129,88.719 C91.949,88.719 91.749,88.829 91.529,89.059 C91.259,89.349 91.159,89.399 90.879,89.349 C90.599,89.299 90.499,89.339 90.239,89.609 C89.959,89.919 89.929,89.929 89.719,89.779 C89.419,89.569 89.289,89.579 88.939,89.839 C88.709,90.009 88.609,90.029 88.519,89.939 C88.329,89.749 87.889,89.799 87.689,90.019 C87.559,90.169 87.379,90.219 87.039,90.219 C86.699,90.219 86.519,90.269 86.389,90.419 C86.219,90.609 86.209,90.609 85.959,90.419 C85.599,90.129 85.389,90.169 84.899,90.619 C84.659,90.839 84.369,91.019 84.259,91.019 C84.139,91.019 83.959,91.149 83.839,91.319 C83.699,91.519 83.539,91.619 83.369,91.619 C83.069,91.619 82.379,92.289 82.279,92.669 C82.199,92.979 82.079,92.989 81.999,92.689 C81.889,92.259 81.939,91.949 82.249,91.309 C82.529,90.759 82.969,90.269 85.549,87.709 C87.199,86.079 88.539,84.699 88.539,84.649 C88.539,84.419 88.259,84.299 88.019,84.429 C87.679,84.609 86.219,85.759 85.449,86.459 C85.079,86.799 84.279,87.519 83.659,88.059 C81.729,89.759 80.839,91.079 80.839,92.229 C80.839,92.929 81.029,93.569 81.429,94.219 C81.599,94.499 81.739,94.809 81.739,94.909 C81.739,95.009 81.839,95.329 81.959,95.609 L82.169,96.139 L81.909,96.679 C81.599,97.299 81.569,97.669 81.809,97.799 C81.959,97.889 81.949,97.949 81.749,98.499 C81.549,99.019 81.539,99.129 81.659,99.339 C81.729,99.459 81.789,99.749 81.789,99.969 C81.789,100.349 81.799,100.369 82.099,100.369 C82.389,100.369 82.409,100.389 82.329,100.599 C82.279,100.729 82.239,101.009 82.239,101.219 C82.239,101.659 82.439,101.799 82.709,101.539 C82.869,101.379 82.869,101.379 82.799,101.619 C82.749,101.759 82.699,102.169 82.669,102.539 C82.629,103.099 82.639,103.229 82.779,103.279 C82.869,103.309 83.009,103.279 83.099,103.209 C83.229,103.099 83.249,103.119 83.199,103.329 C82.979,104.289 82.949,104.529 83.029,104.759 C83.179,105.129 83.349,105.179 83.559,104.919 C83.659,104.799 83.769,104.719 83.799,104.749 C83.829,104.779 83.809,105.219 83.759,105.739 C83.699,106.389 83.589,106.839 83.409,107.229 C83.259,107.539 83.139,107.859 83.139,107.939 C83.139,108.139 83.399,108.359 83.529,108.279 C83.589,108.239 83.619,108.329 83.609,108.489 C83.589,108.719 83.629,108.779 83.859,108.799 C84.039,108.819 84.169,108.759 84.279,108.599 C84.519,108.259 84.479,108.429 84.139,109.139 C83.689,110.089 83.779,110.669 84.309,110.199 L84.529,109.999 L84.389,110.529 C84.209,111.189 84.199,111.439 84.359,111.599 C84.529,111.769 84.809,111.569 84.889,111.219 C84.929,111.049 84.999,110.949 85.059,110.979 C85.119,111.019 85.139,111.419 85.089,112.119 C85.019,113.149 85.029,113.209 85.239,113.419 C85.449,113.629 85.449,113.659 85.309,114.009 C85.029,114.659 84.819,115.409 84.859,115.639 C84.879,115.799 84.969,115.879 85.149,115.899 L85.419,115.929 L85.069,116.789 C84.709,117.679 84.709,117.899 85.039,117.989 C85.189,118.029 85.209,118.079 85.139,118.219 C85.079,118.319 85.069,118.469 85.099,118.559 C85.169,118.729 85.489,118.859 85.629,118.779 C85.679,118.749 85.649,118.989 85.559,119.319 C85.379,119.999 85.449,120.249 85.839,120.299 C86.029,120.329 86.049,120.379 85.999,120.699 C85.969,120.899 85.919,121.409 85.879,121.819 C85.829,122.449 85.839,122.609 85.979,122.739 C86.059,122.829 86.179,122.919 86.229,122.939 C86.289,122.959 86.309,123.249 86.269,123.679 L86.209,124.389 L85.489,123.619 C84.719,122.789 84.029,121.919 83.619,121.269 C82.149,118.919 76.989,109.039 75.339,105.419 C73.869,102.209 73.199,100.099 72.739,97.299 C72.679,96.929 72.519,95.329 72.389,93.749 C72.049,89.729 71.909,88.709 71.179,84.719 C69.869,77.609 69.789,76.969 69.799,73.419 C69.809,71.209 69.849,70.379 70.019,69.169 C70.819,63.429 70.939,62.369 71.239,58.119 C71.879,49.189 72.179,46.739 73.339,41.169 C74.569,35.229 75.039,33.599 76.189,31.259 C77.939,27.699 82.229,22.519 86.449,18.879 C91.749,14.299 96.519,11.899 102.789,10.679 C103.959,10.449 105.809,10.189 107.039,10.079 C107.289,10.059 108.859,10.059 110.539,10.069 C112.929,10.099 113.889,10.149 114.989,10.309 z M88.799,56.519 C89.859,56.729 90.489,56.899 90.239,56.899 C89.989,56.909 87.379,56.339 87.599,56.329 C87.719,56.319 88.259,56.409 88.799,56.519 z M88.499,57.709 C90.609,58.149 92.699,58.889 94.039,59.669 C94.819,60.129 96.829,61.519 96.699,61.519 C96.669,61.519 96.529,61.459 96.409,61.379 C96.139,61.199 93.849,60.349 92.039,59.749 C89.429,58.889 87.959,58.659 85.549,58.749 C82.909,58.849 80.619,59.459 77.959,60.769 L76.699,61.389 L77.489,60.629 C79.089,59.099 81.249,57.999 83.509,57.569 C84.629,57.359 87.159,57.429 88.499,57.709 z M88.239,59.979 C90.159,60.239 92.919,61.149 97.929,63.159 C98.559,63.409 99.139,63.619 99.209,63.619 C99.279,63.619 99.339,63.669 99.339,63.739 C99.339,63.969 99.009,65.169 98.919,65.289 C98.799,65.439 96.629,66.299 95.439,66.669 C92.159,67.689 87.019,67.829 83.099,67.009 C81.649,66.709 79.549,66.099 78.289,65.609 C77.299,65.239 77.129,65.129 76.589,64.579 C75.899,63.879 75.649,63.329 75.929,63.079 C76.149,62.879 79.109,61.439 80.109,61.039 C82.829,59.969 85.599,59.609 88.239,59.979 z M69.579,63.689 C69.349,65.689 68.849,68.739 68.779,68.529 C68.739,68.399 68.589,68.069 68.449,67.779 C68.239,67.379 68.129,67.259 67.919,67.239 C67.489,67.189 67.359,67.569 67.619,68.079 C67.729,68.299 67.969,68.969 68.149,69.569 C68.469,70.659 68.469,70.689 68.479,72.869 C68.489,75.179 68.439,75.589 67.889,78.069 C67.129,81.509 67.099,81.669 67.089,82.719 C67.089,83.649 67.119,83.829 67.339,84.269 C67.589,84.769 67.859,84.939 68.069,84.729 C68.149,84.649 68.179,84.209 68.159,83.399 C68.129,82.309 68.169,81.979 68.509,80.279 C68.869,78.459 68.889,78.399 68.959,78.869 C69.129,79.979 69.289,80.919 69.899,84.319 C70.549,87.889 70.939,90.399 70.939,90.979 C70.939,91.259 70.889,91.319 70.369,91.549 C69.369,91.989 69.029,92.039 68.289,91.869 C67.219,91.629 66.409,91.119 66.059,90.479 C65.919,90.219 65.889,89.919 65.909,88.569 C65.929,87.689 65.979,86.559 66.029,86.069 C66.079,85.569 66.199,82.469 66.279,79.169 C66.439,73.009 66.529,71.149 66.789,68.369 C67.109,65.029 67.359,64.139 68.069,63.739 C68.409,63.559 69.439,63.129 69.569,63.129 C69.609,63.119 69.609,63.379 69.579,63.689 z M95.629,94.809 C96.019,95.019 97.059,94.699 97.599,94.199 C97.809,94.009 97.819,94.009 97.879,94.259 C97.909,94.399 98.059,94.589 98.189,94.679 C98.429,94.839 98.469,94.839 98.829,94.669 C99.209,94.499 99.209,94.499 99.469,94.759 C99.779,95.069 100.079,95.089 100.489,94.829 C100.789,94.649 100.789,94.649 101.009,94.889 C101.289,95.189 101.589,95.179 102.009,94.859 C102.199,94.719 102.339,94.659 102.339,94.729 C102.339,94.919 102.649,95.219 102.839,95.219 C102.939,95.219 103.179,95.099 103.389,94.959 C103.729,94.739 103.779,94.719 103.859,94.859 C103.959,95.039 104.489,95.079 104.589,94.919 C104.619,94.859 104.799,94.979 104.979,95.169 C105.379,95.589 105.649,95.609 105.939,95.249 C106.099,95.049 106.169,95.009 106.259,95.099 C106.429,95.269 106.989,95.249 107.139,95.069 C107.259,94.929 107.289,94.929 107.439,95.069 C107.709,95.309 108.359,95.229 108.489,94.939 C108.589,94.699 108.689,94.659 108.789,94.819 C108.819,94.869 109.059,95.009 109.309,95.119 C109.869,95.369 110.259,95.309 110.489,94.959 L110.649,94.709 L111.009,95.019 C111.319,95.289 111.429,95.329 111.829,95.299 C112.189,95.279 112.359,95.319 112.579,95.489 C112.959,95.799 113.369,95.789 113.609,95.479 L113.789,95.229 L114.469,95.529 C114.849,95.689 115.229,95.819 115.319,95.819 C115.519,95.819 115.839,95.529 115.839,95.339 C115.839,95.209 115.859,95.209 116.019,95.349 C116.269,95.569 117.049,95.919 117.319,95.919 C117.449,95.919 117.649,95.819 117.779,95.689 L117.999,95.459 L118.389,95.739 C118.839,96.069 119.259,96.099 119.539,95.819 C119.649,95.709 119.759,95.619 119.789,95.619 C119.819,95.619 120.029,95.749 120.259,95.919 C120.769,96.289 121.349,96.329 121.569,96.009 C121.719,95.809 121.719,95.809 122.099,95.999 C122.709,96.309 123.079,96.349 123.429,96.169 C123.649,96.059 123.739,95.939 123.739,95.769 L123.739,95.529 L124.089,95.739 C124.349,95.889 124.549,95.929 124.799,95.889 C125.039,95.849 125.239,95.879 125.399,95.989 C125.559,96.089 125.769,96.129 126.029,96.089 C126.379,96.049 126.459,96.079 126.749,96.379 C126.929,96.569 127.159,96.739 127.249,96.769 C127.499,96.849 127.439,97.189 127.139,97.329 C126.579,97.609 105.679,97.689 101.889,97.429 C98.799,97.219 96.309,97.009 92.639,96.669 C89.879,96.409 88.779,96.379 87.789,96.559 C86.649,96.759 86.189,96.759 85.699,96.539 L85.309,96.359 L86.089,95.879 L86.869,95.389 L87.299,95.629 C87.709,95.849 87.759,95.859 87.999,95.709 C88.249,95.559 88.269,95.559 88.499,95.789 C88.809,96.099 89.089,96.079 89.449,95.729 C89.729,95.449 89.739,95.439 89.849,95.629 C90.119,96.139 90.959,96.059 91.359,95.489 C91.479,95.309 91.589,95.159 91.599,95.139 C91.609,95.119 91.739,95.179 91.879,95.269 C92.289,95.539 92.759,95.399 93.209,94.869 L93.579,94.429 L93.719,94.719 C94.009,95.319 94.669,95.209 95.119,94.479 L95.389,94.039 L95.419,94.379 C95.439,94.579 95.529,94.759 95.629,94.809 z M86.209,97.799 C86.869,97.839 86.939,97.869 87.149,98.159 C88.559,100.089 91.549,103.079 93.339,104.339 C95.439,105.819 98.669,107.109 101.489,107.579 C102.939,107.819 106.409,107.829 107.889,107.589 C111.259,107.039 115.359,105.659 117.789,104.249 C119.319,103.369 121.039,101.989 123.139,99.959 L124.389,98.749 L125.679,98.679 C126.389,98.639 127.029,98.579 127.099,98.549 C127.209,98.509 127.199,98.559 127.089,98.789 C126.949,99.059 126.619,100.289 126.509,100.919 C126.429,101.339 125.729,103.949 125.589,104.319 C125.469,104.639 125.349,105.099 125.329,105.289 C125.329,105.339 125.289,105.409 125.249,105.469 C125.209,105.519 125.119,105.769 125.059,106.019 C124.999,106.269 124.899,106.669 124.839,106.919 C124.779,107.169 124.719,107.539 124.709,107.739 C124.699,107.949 124.639,108.119 124.579,108.119 C124.409,108.119 124.319,108.419 124.439,108.569 C124.539,108.689 124.299,109.559 123.969,110.309 C123.889,110.489 123.809,110.699 123.799,110.769 C123.789,110.839 123.699,110.969 123.609,111.059 C123.519,111.159 123.459,111.269 123.489,111.319 C123.519,111.359 123.329,111.859 123.079,112.429 C122.829,112.999 122.549,113.649 122.459,113.869 C121.849,115.369 120.259,118.109 120.009,118.119 C119.959,118.119 119.849,118.209 119.759,118.319 C119.589,118.509 118.709,119.029 117.839,119.439 C117.589,119.549 117.359,119.689 117.329,119.739 C117.299,119.789 117.209,119.849 117.129,119.859 C116.909,119.899 115.809,120.439 115.619,120.589 C115.529,120.669 115.399,120.739 115.319,120.759 C115.249,120.769 115.029,120.869 114.839,120.989 C114.649,121.099 114.189,121.359 113.819,121.549 C113.449,121.749 113.199,121.929 113.269,121.959 C113.339,121.979 113.289,122.009 113.159,122.009 C112.929,122.019 112.539,122.199 112.429,122.349 C112.399,122.399 112.309,122.439 112.229,122.459 C112.149,122.469 111.949,122.559 111.769,122.649 C111.589,122.739 111.359,122.829 111.259,122.849 C111.149,122.869 110.999,122.929 110.919,122.989 C110.719,123.159 109.399,123.399 108.289,123.469 C105.849,123.619 103.499,123.669 103.339,123.569 C103.289,123.539 103.239,123.539 103.239,123.589 C103.239,123.629 102.899,123.669 102.489,123.669 C102.079,123.669 101.739,123.639 101.739,123.599 C101.739,123.489 101.409,123.629 101.249,123.809 C101.089,123.989 101.109,123.929 101.379,123.299 C101.519,122.959 101.519,122.919 101.379,122.769 C101.289,122.679 101.139,122.619 101.049,122.639 C100.899,122.669 100.619,123.119 100.489,123.559 C100.449,123.699 100.399,123.719 100.319,123.639 C100.259,123.579 100.149,123.559 100.079,123.589 C99.999,123.619 99.939,123.599 99.939,123.559 C99.939,123.509 99.609,123.459 99.209,123.459 C98.819,123.449 98.129,123.369 97.689,123.279 C96.679,123.079 96.659,123.069 96.579,122.989 C96.539,122.949 96.429,122.919 96.339,122.919 C96.059,122.919 94.609,122.149 93.919,121.629 C93.539,121.349 93.239,121.159 93.229,121.199 C93.229,121.239 93.189,121.169 93.139,121.039 C93.089,120.919 92.979,120.819 92.889,120.819 C92.809,120.819 92.739,120.789 92.739,120.739 C92.739,120.699 92.549,120.469 92.329,120.219 C91.569,119.379 91.389,119.169 90.939,118.569 C90.689,118.239 90.459,117.949 90.419,117.939 C90.369,117.919 90.339,117.859 90.339,117.799 C90.339,117.749 90.209,117.509 90.039,117.279 C89.879,117.039 89.779,116.819 89.809,116.779 C89.849,116.749 89.819,116.719 89.759,116.719 C89.649,116.719 88.429,114.309 88.059,113.369 C87.949,113.089 87.799,112.519 87.729,112.089 C87.659,111.669 87.569,111.319 87.529,111.319 C87.489,111.319 87.459,111.239 87.459,111.139 C87.469,111.049 87.309,110.309 87.109,109.509 C86.909,108.699 86.739,107.949 86.739,107.849 C86.739,107.739 86.709,107.619 86.669,107.579 C86.529,107.439 86.539,107.069 86.739,106.239 C86.869,105.709 86.909,105.349 86.849,105.289 C86.739,105.179 86.539,105.279 86.539,105.449 C86.539,105.519 86.459,105.619 86.369,105.679 C86.209,105.779 86.189,105.749 86.169,105.429 C86.109,104.409 86.069,104.149 85.969,103.919 C85.769,103.479 85.709,103.279 85.689,102.969 C85.669,102.799 85.649,102.649 85.639,102.619 C85.629,102.589 85.619,102.539 85.619,102.509 C85.629,102.469 85.589,102.299 85.539,102.119 C85.479,101.929 85.489,101.709 85.549,101.549 C85.619,101.349 85.609,101.249 85.489,101.119 C85.339,100.959 85.219,100.319 85.199,99.589 C85.189,99.379 85.139,99.179 85.089,99.139 C84.949,99.049 84.639,97.829 84.709,97.659 C84.739,97.579 84.719,97.519 84.659,97.519 C84.609,97.519 84.539,97.449 84.499,97.369 C84.459,97.259 84.589,97.289 84.969,97.489 C85.339,97.669 85.699,97.759 86.209,97.799 z M93.099,97.819 C100.469,98.559 104.909,98.759 113.119,98.699 L119.639,98.659 L119.639,99.129 C119.639,99.379 119.519,100.039 119.379,100.579 C119.239,101.129 119.089,101.699 119.069,101.849 C119.029,102.069 118.819,102.259 118.149,102.709 C115.229,104.669 110.339,106.289 106.239,106.639 C104.639,106.769 102.319,106.639 100.789,106.329 C97.819,105.709 94.449,104.039 92.349,102.139 L91.709,101.559 L91.689,100.019 C91.669,99.169 91.629,98.299 91.589,98.089 C91.519,97.729 91.529,97.719 91.819,97.719 C91.979,97.719 92.559,97.759 93.099,97.819 z M142.199,109.689 C142.159,110.179 142.089,111.629 142.039,112.919 C141.979,114.209 141.869,116.729 141.789,118.519 C141.709,120.309 141.569,123.249 141.489,125.069 C141.409,126.879 141.259,129.939 141.169,131.869 C141.069,133.789 140.999,136.289 141.019,137.419 C141.039,139.239 141.059,139.499 141.219,139.719 C141.469,140.049 141.779,140.079 142.049,139.809 C142.249,139.609 142.259,139.529 142.219,138.409 L142.169,137.219 L142.589,137.549 C144.819,139.249 145.559,139.769 146.909,140.579 C147.759,141.089 148.509,141.529 148.569,141.549 C148.709,141.589 148.599,141.799 147.379,143.869 C145.829,146.489 144.589,148.469 143.089,150.719 C138.469,157.629 135.359,161.109 129.239,166.209 C124.889,169.829 118.629,174.429 116.789,175.349 C115.189,176.149 114.959,176.129 112.819,175.039 C104.809,170.949 92.909,163.679 88.659,160.289 C84.829,157.229 78.549,150.559 74.859,145.629 C74.019,144.519 73.469,143.649 73.559,143.569 C73.579,143.549 74.189,143.299 74.919,143.019 C76.429,142.419 77.529,141.819 79.039,140.759 L80.089,140.019 L80.119,140.849 C80.149,141.929 80.189,142.059 80.499,142.209 C80.829,142.359 81.199,142.149 81.299,141.749 C81.339,141.609 81.339,140.309 81.309,138.879 C81.269,137.439 81.219,132.559 81.189,128.019 C81.159,123.479 81.109,119.629 81.089,119.469 C81.049,119.219 81.089,119.259 81.359,119.719 C82.979,122.569 83.449,123.209 85.029,124.839 C85.639,125.479 86.039,125.819 86.179,125.819 C86.419,125.819 86.739,126.269 86.739,126.599 C86.739,126.709 86.809,126.849 86.889,126.919 C86.969,126.989 87.039,127.119 87.039,127.219 C87.039,127.429 87.389,127.759 87.529,127.669 C87.599,127.629 87.639,127.749 87.639,128.009 C87.639,128.559 88.079,128.959 88.299,128.599 C88.349,128.529 88.429,128.729 88.509,129.069 C88.679,129.799 88.879,130.119 89.169,130.119 C89.339,130.119 89.459,130.249 89.679,130.719 C90.119,131.629 90.469,131.829 90.699,131.309 C90.779,131.129 90.829,131.149 91.159,131.589 C91.819,132.439 93.149,133.719 93.379,133.719 C93.439,133.719 93.699,133.829 93.959,133.969 C94.219,134.109 94.499,134.219 94.589,134.219 C94.669,134.219 94.939,134.419 95.169,134.669 C95.609,135.129 95.809,135.199 96.139,135.019 C96.269,134.949 96.349,134.969 96.449,135.079 C96.589,135.249 97.069,135.519 97.229,135.519 C97.279,135.519 97.399,135.449 97.479,135.359 C97.629,135.219 97.669,135.229 97.999,135.509 C98.349,135.819 98.709,135.899 99.019,135.729 C99.149,135.659 99.359,135.749 99.839,136.069 C100.859,136.749 102.109,136.969 102.259,136.499 C102.289,136.409 102.439,136.489 102.719,136.739 C102.949,136.949 103.189,137.119 103.249,137.119 C103.489,137.119 103.749,136.889 103.889,136.549 L104.039,136.199 L104.439,136.559 C104.959,137.029 105.419,137.049 105.849,136.629 C106.009,136.469 106.139,136.259 106.139,136.179 C106.139,135.949 106.229,135.979 106.459,136.269 C106.769,136.659 107.249,136.609 107.629,136.149 C107.919,135.799 107.939,135.789 108.119,135.949 C108.219,136.039 108.459,136.119 108.649,136.119 C108.839,136.119 109.049,136.169 109.099,136.219 C109.159,136.279 109.389,136.339 109.619,136.349 C109.959,136.359 110.109,136.289 110.609,135.899 C111.169,135.459 111.209,135.449 111.319,135.629 C111.619,136.109 112.229,135.929 112.709,135.209 C112.899,134.919 113.019,134.829 113.129,134.879 C113.629,135.089 113.839,135.049 114.219,134.649 C114.529,134.329 114.619,134.279 114.719,134.389 C114.789,134.459 114.999,134.519 115.179,134.519 C115.499,134.519 115.799,134.289 116.159,133.739 C116.289,133.539 116.329,133.529 116.439,133.669 C116.579,133.839 116.969,133.869 117.249,133.719 C117.349,133.659 117.529,133.429 117.649,133.209 C117.779,132.939 117.899,132.819 117.999,132.859 C118.289,132.969 118.609,132.739 118.799,132.289 C118.939,131.949 119.019,131.859 119.169,131.899 C119.269,131.929 119.529,131.889 119.749,131.819 C120.089,131.699 120.169,131.709 120.239,131.819 C120.359,132.009 120.969,131.539 121.139,131.129 C121.219,130.919 121.329,130.819 121.479,130.819 C121.809,130.819 122.119,130.549 122.389,130.029 C122.599,129.609 122.659,129.549 122.889,129.589 C123.299,129.669 123.479,129.429 123.679,128.499 C123.729,128.259 123.779,128.229 124.029,128.279 C124.239,128.329 124.369,128.289 124.529,128.129 C124.769,127.889 124.779,127.809 124.639,127.339 C124.559,127.059 124.569,127.019 124.689,127.119 C124.909,127.299 125.389,127.199 125.419,126.969 C125.429,126.859 125.569,126.699 125.719,126.609 C126.649,126.079 131.849,121.409 134.239,118.959 C136.579,116.569 139.929,112.379 141.559,109.819 C141.909,109.269 142.209,108.819 142.229,108.819 C142.249,108.819 142.229,109.209 142.199,109.689 z M144.739,135.449 C148.329,137.509 157.039,142.709 157.279,142.929 C157.369,143.009 155.939,146.239 155.819,146.199 C155.789,146.179 155.179,145.659 154.469,145.039 C152.979,143.739 151.939,142.939 150.939,142.339 C150.159,141.869 149.989,141.809 149.989,141.989 C149.989,142.059 150.369,142.369 150.839,142.689 C151.909,143.419 152.939,144.239 154.079,145.269 C154.569,145.709 155.129,146.209 155.319,146.369 L155.659,146.669 L155.029,147.939 L154.399,149.199 L153.799,148.679 C152.929,147.929 149.299,145.159 148.779,144.859 C148.539,144.719 148.339,144.579 148.339,144.559 C148.339,144.539 148.669,143.969 149.079,143.289 C149.479,142.619 149.999,141.719 150.229,141.299 C150.469,140.869 150.689,140.499 150.739,140.469 C150.819,140.419 151.949,141.309 154.609,143.499 C155.229,143.999 155.759,144.419 155.789,144.419 C155.939,144.419 155.799,144.109 155.489,143.749 C155.119,143.309 151.949,140.719 151.269,140.279 C151.019,140.129 150.839,139.939 150.839,139.839 C150.839,139.579 150.639,139.419 150.329,139.419 C150.009,139.419 149.809,139.599 149.529,140.129 C149.429,140.339 149.289,140.519 149.239,140.519 C149.089,140.519 146.759,139.139 145.889,138.539 C145.449,138.239 144.449,137.479 143.669,136.849 L142.239,135.719 L142.239,134.859 C142.239,134.389 142.269,134.029 142.319,134.049 C142.359,134.069 143.449,134.699 144.739,135.449 z M80.119,137.449 L80.159,138.479 L78.849,139.419 C77.219,140.609 76.239,141.179 74.699,141.819 C72.969,142.559 73.029,142.549 72.789,141.869 C72.549,141.149 72.289,140.819 71.989,140.819 C71.519,140.819 71.319,141.279 71.529,141.849 C71.619,142.079 71.589,142.109 71.159,142.269 C70.899,142.369 69.589,142.969 68.239,143.619 C65.149,145.109 65.039,145.149 64.999,145.109 C64.909,145.019 64.559,143.059 64.619,143.009 C64.839,142.819 79.759,136.439 80.039,136.419 C80.069,136.419 80.099,136.879 80.119,137.449 z M72.049,143.189 C72.209,143.559 72.329,143.869 72.309,143.879 C72.299,143.889 71.729,144.349 71.039,144.899 C70.349,145.449 69.269,146.319 68.629,146.839 C66.209,148.789 66.149,148.829 66.049,148.639 C65.929,148.419 65.139,145.789 65.179,145.749 C65.189,145.729 66.009,145.309 66.999,144.819 C67.979,144.329 69.439,143.589 70.239,143.179 C71.039,142.769 71.709,142.459 71.729,142.479 C71.749,142.499 71.899,142.819 72.049,143.189 z M73.549,145.829 L74.119,146.589 L73.359,147.169 C71.169,148.839 69.829,150.079 70.009,150.259 C70.149,150.399 70.349,150.279 71.199,149.539 C72.599,148.329 74.339,146.959 74.419,147.019 C74.539,147.109 76.339,149.319 76.369,149.409 C76.389,149.509 74.969,150.789 72.939,152.479 C71.209,153.919 70.949,154.149 70.719,154.499 C70.289,155.139 70.679,155.059 71.459,154.339 C71.809,154.019 72.769,153.189 73.589,152.509 C74.419,151.819 75.449,150.909 75.889,150.499 L76.689,149.749 L77.379,150.539 C77.759,150.979 78.069,151.389 78.079,151.459 C78.079,151.529 77.629,151.949 77.079,152.399 C75.329,153.809 73.629,155.749 73.479,156.509 C73.369,157.039 73.669,156.879 74.179,156.129 C74.989,154.949 76.939,152.969 78.239,152.029 L78.489,151.839 L79.999,153.519 L81.519,155.189 L80.609,155.829 C79.029,156.939 76.589,159.489 76.069,160.569 L75.899,160.929 L75.119,160.149 C74.689,159.719 74.339,159.339 74.339,159.289 C74.339,159.169 76.809,156.099 78.519,154.089 C78.599,153.999 78.639,153.889 78.599,153.849 C78.569,153.809 78.329,153.999 78.069,154.279 C77.819,154.549 77.239,155.159 76.789,155.639 C76.339,156.109 75.509,157.069 74.959,157.749 L73.949,159.009 L72.969,157.939 C70.739,155.529 69.809,154.419 69.909,154.289 C69.969,154.229 70.479,153.579 71.059,152.869 C72.389,151.219 73.059,150.309 72.989,150.239 C72.959,150.209 72.839,150.269 72.729,150.379 C72.499,150.579 70.439,152.879 69.839,153.609 L69.489,154.029 L68.679,152.999 C68.229,152.429 67.659,151.679 67.419,151.319 C66.969,150.679 66.299,149.429 66.359,149.369 C66.379,149.349 67.089,148.779 67.949,148.099 C69.679,146.739 70.859,145.749 71.839,144.849 L72.489,144.249 L72.729,144.659 C72.869,144.879 73.229,145.409 73.549,145.829 z M150.689,146.779 C151.959,147.769 153.259,148.789 153.599,149.059 L154.209,149.549 L153.759,150.359 C153.509,150.809 153.209,151.339 153.099,151.539 C152.979,151.749 152.869,151.919 152.839,151.909 C152.809,151.909 152.649,151.719 152.489,151.489 C151.839,150.599 149.559,148.879 147.479,147.719 L146.669,147.269 L147.419,146.039 C147.929,145.209 148.199,144.849 148.279,144.909 C148.339,144.959 149.429,145.799 150.689,146.779 z M147.199,147.939 C149.779,149.499 151.829,151.059 152.449,151.929 L152.659,152.219 L152.369,152.669 C152.109,153.089 151.939,153.229 151.939,153.029 C151.939,152.799 148.139,149.719 147.859,149.719 C147.559,149.719 147.809,150.049 148.519,150.579 C148.939,150.889 149.879,151.629 150.589,152.199 C151.309,152.779 151.909,153.259 151.919,153.279 C151.949,153.299 151.039,154.719 150.869,154.909 C150.849,154.939 150.679,154.809 150.499,154.629 C150.149,154.289 147.439,152.329 145.669,151.139 L144.659,150.449 L145.569,148.989 C146.079,148.189 146.499,147.529 146.499,147.529 C146.509,147.519 146.829,147.709 147.199,147.939 z M145.609,151.559 C147.039,152.669 148.709,153.859 149.819,154.559 L150.729,155.139 L150.219,155.859 C149.949,156.249 149.579,156.779 149.399,157.039 C149.229,157.299 149.069,157.519 149.039,157.519 C149.009,157.519 148.899,157.319 148.799,157.089 C148.389,156.199 145.939,154.029 144.069,152.919 C143.669,152.679 143.339,152.469 143.339,152.449 C143.339,152.399 144.469,150.719 144.499,150.719 C144.519,150.719 145.019,151.099 145.609,151.559 z M144.979,154.039 C146.459,155.109 147.939,156.469 148.479,157.249 L148.859,157.799 L147.949,159.049 C147.449,159.749 146.999,160.329 146.949,160.359 C146.909,160.389 146.719,160.199 146.529,159.939 C145.809,158.919 142.079,155.379 141.529,155.199 C141.459,155.179 141.739,154.679 142.249,153.949 L143.089,152.739 L143.389,152.929 C143.559,153.029 144.269,153.529 144.979,154.039 z M144.029,157.769 C145.139,158.849 146.489,160.369 146.609,160.689 C146.649,160.789 144.709,163.419 144.599,163.419 C144.589,163.419 144.269,163.039 143.889,162.569 C142.989,161.449 139.549,158.419 139.169,158.419 C138.889,158.419 139.069,158.639 140.019,159.419 C141.679,160.809 142.799,161.889 143.529,162.799 C143.919,163.279 144.239,163.729 144.239,163.799 C144.239,163.949 143.529,164.829 143.429,164.799 C143.399,164.779 143.129,164.479 142.829,164.119 C142.039,163.159 138.929,160.019 138.779,160.019 C138.479,160.019 138.689,160.289 139.869,161.459 C140.539,162.119 141.579,163.219 142.169,163.899 C143.379,165.279 143.329,165.059 142.619,165.899 L142.349,166.219 L141.869,165.739 C140.639,164.529 136.659,161.519 136.269,161.519 C135.969,161.519 136.179,161.809 136.719,162.169 C138.029,163.039 140.379,164.889 141.449,165.889 L142.119,166.509 L141.119,167.639 C140.569,168.259 140.059,168.829 139.989,168.909 C139.879,169.019 139.819,168.969 139.599,168.539 C138.909,167.179 136.559,164.899 135.069,164.129 C134.619,163.909 134.239,163.849 134.239,164.019 C134.239,164.069 134.289,164.119 134.359,164.119 C134.599,164.119 136.719,165.829 137.659,166.789 C138.629,167.779 139.489,168.739 139.639,169.019 C139.689,169.129 139.499,169.399 138.939,170.019 L138.149,170.859 L137.279,169.919 C135.469,167.949 132.969,165.619 132.669,165.619 C132.369,165.619 132.589,165.909 133.499,166.719 C134.019,167.189 135.209,168.369 136.139,169.349 L137.829,171.129 L137.089,171.829 C136.339,172.549 134.859,173.789 133.759,174.649 L133.149,175.129 L132.879,174.569 C132.519,173.799 131.669,172.759 130.449,171.599 C129.119,170.319 127.649,169.099 127.529,169.169 C127.359,169.279 127.429,169.389 127.919,169.759 C128.869,170.499 130.739,172.259 131.399,173.029 C132.039,173.779 132.939,175.039 132.939,175.179 C132.939,175.429 127.949,178.659 124.989,180.339 C123.019,181.449 122.439,181.759 122.409,181.709 C122.399,181.689 122.269,181.419 122.109,181.119 C121.709,180.329 120.259,178.319 120.089,178.319 C119.839,178.319 119.919,178.599 120.319,179.149 C120.529,179.439 120.989,180.099 121.329,180.619 C121.679,181.139 122.019,181.639 122.089,181.719 C122.209,181.849 122.119,181.929 121.429,182.289 C120.729,182.659 120.619,182.689 120.579,182.539 C120.379,181.909 119.929,180.969 119.409,180.099 C118.749,178.999 117.389,177.149 117.119,176.979 C116.799,176.789 116.799,177.019 117.109,177.449 C118.359,179.149 120.339,182.419 120.339,182.779 C120.339,182.919 117.779,184.079 117.039,184.269 C116.279,184.479 115.079,184.499 114.439,184.329 C113.739,184.129 112.239,183.479 112.239,183.369 C112.249,183.189 113.519,181.479 114.439,180.439 C114.929,179.869 115.309,179.359 115.279,179.309 C115.099,179.009 113.739,180.369 112.579,181.999 C112.179,182.559 111.839,183.069 111.819,183.139 C111.779,183.249 110.649,182.759 107.559,181.299 L106.419,180.769 L107.349,179.519 C107.859,178.829 108.719,177.719 109.259,177.039 C109.909,176.229 110.239,175.759 110.199,175.649 C110.149,175.519 110.109,175.519 109.969,175.629 C109.559,175.979 107.209,178.909 106.519,179.939 L106.069,180.609 L102.429,178.789 C98.109,176.619 94.129,174.519 94.069,174.359 C93.909,173.949 98.089,168.319 98.549,168.319 C98.629,168.319 100.879,169.649 101.029,169.779 C101.059,169.809 100.939,169.969 100.769,170.149 C100.239,170.709 99.279,172.039 98.809,172.869 C98.379,173.619 98.129,174.419 98.319,174.419 C98.359,174.419 98.709,173.919 99.089,173.299 C99.479,172.679 100.139,171.709 100.569,171.149 C100.989,170.579 101.339,170.079 101.339,170.029 C101.339,169.979 101.959,170.299 102.729,170.739 L104.109,171.549 L103.359,172.309 C101.999,173.679 100.689,175.459 100.339,176.399 C100.229,176.699 100.159,176.969 100.189,176.999 C100.249,177.069 100.339,176.949 101.159,175.769 C101.929,174.639 102.779,173.579 103.719,172.559 L104.449,171.769 L104.919,172.019 C105.179,172.159 106.379,172.839 107.589,173.509 C108.799,174.189 110.759,175.249 111.939,175.859 L114.089,176.969 L115.039,176.969 C115.899,176.969 116.069,176.929 116.769,176.629 C117.209,176.449 117.969,176.029 118.469,175.699 C118.969,175.369 119.429,175.079 119.499,175.049 C119.659,174.989 122.139,177.309 123.049,178.379 C124.319,179.859 124.719,180.309 124.779,180.249 C124.899,180.129 124.429,179.189 123.959,178.589 C123.349,177.829 121.499,176.029 120.589,175.309 C120.049,174.889 119.949,174.769 120.059,174.659 C120.279,174.449 123.159,172.419 123.229,172.419 C123.459,172.419 126.989,176.239 127.809,177.369 C128.149,177.849 128.179,177.599 127.859,176.959 C127.369,175.999 126.689,175.149 125.119,173.579 C124.299,172.759 123.659,172.059 123.709,172.019 C123.749,171.979 124.379,171.509 125.089,170.969 C126.709,169.739 128.039,168.679 129.109,167.799 L129.929,167.119 L131.309,168.309 C132.899,169.679 134.199,170.929 135.219,172.059 C135.619,172.499 135.939,172.789 135.939,172.709 C135.939,172.319 135.119,171.229 134.039,170.189 C133.009,169.179 130.769,167.309 130.309,167.059 C130.159,166.969 130.309,166.809 131.309,165.949 C135.089,162.719 137.719,159.989 140.399,156.489 L141.279,155.339 L142.029,155.949 C142.439,156.289 143.339,157.109 144.029,157.769 z M83.319,156.939 L84.739,158.369 L83.609,159.519 C82.059,161.099 80.639,162.989 80.639,163.469 C80.639,163.799 80.909,163.529 81.939,162.169 C82.519,161.409 83.449,160.309 83.999,159.729 L85.009,158.669 L85.419,159.019 C85.639,159.209 86.309,159.789 86.909,160.299 L87.989,161.229 L87.089,162.149 C85.799,163.469 84.069,165.459 83.389,166.399 L82.809,167.199 L82.249,166.749 C81.059,165.779 81.009,165.719 81.119,165.479 C81.239,165.199 82.129,164.039 82.809,163.249 C83.109,162.909 83.979,162.059 84.749,161.369 C85.509,160.669 86.139,160.059 86.139,160.009 C86.139,159.669 85.289,160.309 83.649,161.879 C82.469,162.999 81.419,164.229 80.969,164.989 C80.669,165.499 80.819,165.579 79.109,164.029 L77.849,162.889 L78.009,162.579 C78.099,162.409 78.449,161.889 78.789,161.419 C79.589,160.329 80.459,158.919 80.409,158.789 C80.369,158.669 78.489,161.069 77.949,161.939 C77.749,162.259 77.569,162.519 77.539,162.519 C77.509,162.519 77.179,162.219 76.809,161.839 L76.139,161.169 L76.929,160.119 C77.369,159.539 78.139,158.659 78.659,158.149 C79.629,157.189 81.619,155.529 81.789,155.519 C81.849,155.519 82.529,156.159 83.319,156.939 z M90.109,163.709 C88.449,164.949 86.659,167.089 85.929,168.699 L85.639,169.329 L85.319,169.109 C85.049,168.919 84.449,168.469 83.259,167.559 C83.139,167.469 83.239,167.289 83.839,166.509 C84.709,165.399 85.549,164.419 87.119,162.709 L88.279,161.459 L89.499,162.349 L90.729,163.239 L90.109,163.709 z M92.399,164.359 L93.599,165.159 L92.039,166.709 C90.529,168.219 89.249,169.789 88.749,170.739 L88.499,171.199 L88.099,170.949 C87.869,170.809 87.279,170.429 86.769,170.099 L85.859,169.509 L86.519,168.439 C86.879,167.849 87.409,167.049 87.699,166.659 C88.419,165.699 90.829,163.479 91.089,163.539 C91.149,163.559 91.749,163.929 92.399,164.359 z M95.939,166.649 C96.899,167.249 97.789,167.809 97.919,167.889 L98.149,168.029 L97.489,168.729 C96.209,170.089 94.379,172.559 93.779,173.749 C93.689,173.929 93.599,174.089 93.579,174.099 C93.549,174.149 91.919,173.239 90.159,172.199 L88.829,171.409 L89.049,171.039 C89.949,169.549 91.029,168.249 92.729,166.589 C93.519,165.809 93.979,165.429 94.059,165.479 C94.129,165.519 94.979,166.049 95.939,166.649 z" fill="#000000"/>
    <path d="M169.069,154.119 C169.029,154.179 169.219,154.549 169.49,154.949 C171.079,157.329 175.409,165.249 178.64,171.679 C182.24,178.849 184.703,183.596 186.053,188.536 C186.233,189.196 186.204,188.906 186.514,188.906 C186.694,188.906 186.766,188.747 186.766,188.697 C186.766,188.477 186.349,188.159 185.74,186.329 C184.79,183.469 182.909,178.849 181.259,175.329 C178.299,169.009 172.909,159.059 170.749,155.929 C169.969,154.789 169.179,153.939 169.069,154.119 z" fill="#000000"/>
    <path d="M58.561,161.649 C54.441,165.809 48.971,173.869 45.421,180.979 C43.841,184.149 42.231,187.809 41.791,189.229 C41.751,189.369 41.521,189.999 41.301,190.629 C40.881,191.799 40.221,193.979 40.091,194.649 C40.021,195.029 40.021,195.029 40.351,195.029 C40.661,195.029 40.691,194.999 40.791,194.599 C42.321,188.759 46.141,180.449 50.341,173.819 C53.281,169.189 56.521,164.839 59.381,161.679 C60.171,160.809 60.331,160.459 60.011,160.349 C59.951,160.329 59.291,160.909 58.561,161.649 z" fill="#000000"/>
    <path d="M56.059,176.559 C54.599,178.219 53.489,179.709 50.469,184.029 C49.599,185.269 48.539,186.769 48.109,187.379 C45.449,191.099 43.009,194.719 43.009,194.949 C43.009,194.999 43.159,195.029 43.339,195.029 C43.649,195.029 43.719,194.949 44.879,193.199 C45.539,192.199 46.529,190.769 47.069,190.019 C49.009,187.339 51.999,183.139 53.559,180.929 C54.429,179.689 55.599,178.059 56.169,177.289 C56.739,176.529 57.209,175.839 57.209,175.769 C57.209,175.419 56.799,175.709 56.059,176.559 z" fill="#000000"/>
    <path d="M170.839,173.489 C170.739,173.749 171.089,174.289 172.059,175.419 C178.179,182.509 180.789,185.909 183.099,189.799 C183.799,190.989 183.829,191.029 184.169,191.029 C184.349,191.029 184.509,190.999 184.509,190.959 C184.509,190.849 182.709,187.839 181.969,186.729 C180.359,184.289 176.369,179.339 172.959,175.579 C172.319,174.859 171.669,174.099 171.529,173.879 C171.139,173.299 170.959,173.189 170.839,173.489 z" fill="#000000"/>
    <path d="M127.109,50.089 C124.469,50.169 122.259,50.429 119.909,50.939 C116.709,51.639 114.279,52.579 113.309,53.489 C112.679,54.079 112.029,55.109 111.519,56.339 C110.989,57.619 110.959,57.959 111.359,58.149 C111.569,58.239 111.689,58.229 112.039,58.059 C112.269,57.939 112.909,57.769 113.459,57.679 C114.009,57.589 115.199,57.339 116.109,57.129 C120.859,56.009 122.149,55.829 125.409,55.829 C128.899,55.829 133.639,56.229 135.329,56.679 C136.249,56.919 137.259,57.469 138.899,58.639 C139.799,59.269 140.539,59.729 140.679,59.729 C140.979,59.729 141.309,59.399 141.309,59.089 C141.309,58.539 139.989,55.439 139.139,54.019 C138.869,53.559 138.329,52.869 137.899,52.439 C136.599,51.109 135.349,50.509 133.409,50.279 C132.219,50.139 128.939,50.039 127.109,50.089 z" fill="#000000"/>
    <path d="M125.359,56.299 C124.139,56.439 122.899,56.699 122.009,56.989 C119.359,57.839 114.979,60.529 113.859,61.999 C113.399,62.599 113.109,63.559 113.109,64.469 C113.109,65.069 113.159,65.259 113.399,65.679 C113.789,66.369 114.369,66.859 115.069,67.129 C116.659,67.719 120.129,68.549 122.459,68.899 C124.199,69.149 129.859,69.149 131.509,68.899 C134.779,68.399 137.579,67.699 138.819,67.069 C139.929,66.509 140.309,65.919 140.309,64.729 C140.299,62.309 138.339,59.879 134.899,58.039 C133.189,57.129 131.669,56.639 129.709,56.379 C128.769,56.249 126.149,56.199 125.359,56.299 z M130.809,57.759 C132.179,58.089 133.329,58.509 134.399,59.089 C135.349,59.599 136.479,60.359 137.069,60.879 C137.429,61.179 137.349,61.159 136.199,60.589 C134.689,59.839 133.599,59.479 131.919,59.169 C130.009,58.819 128.209,58.689 126.159,58.759 C123.419,58.849 121.949,59.129 118.969,60.109 C117.329,60.649 117.349,60.599 119.079,59.609 C120.999,58.529 122.689,57.899 124.409,57.629 C124.819,57.559 125.229,57.499 125.309,57.479 C125.389,57.459 126.429,57.459 127.609,57.479 C129.479,57.509 129.889,57.539 130.809,57.759 z M130.409,60.069 C133.279,60.469 134.949,61.059 137.749,62.669 C138.279,62.979 138.749,63.229 138.809,63.229 C138.959,63.229 139.209,64.209 139.209,64.779 C139.209,65.419 138.989,65.739 138.329,66.069 C137.769,66.349 136.569,66.749 135.459,67.019 C134.689,67.209 134.429,67.259 132.659,67.589 C129.649,68.139 125.189,68.179 121.859,67.669 C119.949,67.379 116.699,66.569 115.359,66.049 C114.969,65.899 114.779,65.749 114.519,65.369 C114.199,64.899 114.189,64.849 114.249,64.209 C114.309,63.509 114.459,63.079 114.649,62.989 C119.089,61.109 122.089,60.199 124.809,59.939 C126.049,59.809 129.079,59.889 130.409,60.069 z" fill="#000000"/>
    <path d="M73.209,61.029 C72.549,61.689 73.599,63.169 74.599,62.979 C75.119,62.879 75.309,62.749 75.309,62.499 C75.309,62.199 75.129,62.029 74.809,62.029 C74.449,62.029 74.109,61.759 74.109,61.469 C74.109,61.199 73.789,60.829 73.559,60.829 C73.479,60.829 73.319,60.919 73.209,61.029 z" fill="#000000"/>
    <path d="M143.259,61.629 C142.959,61.939 142.519,62.109 141.309,62.389 C140.619,62.539 140.209,62.779 140.209,63.039 C140.209,63.089 140.299,63.219 140.409,63.329 C140.779,63.699 142.429,63.529 143.409,63.029 C143.809,62.829 144.509,62.109 144.509,61.899 C144.509,61.829 144.439,61.669 144.349,61.549 C144.119,61.219 143.619,61.249 143.259,61.629 z" fill="#000000"/>
    <path d="M72.579,63.009 C72.269,63.349 72.369,63.669 72.909,64.159 C73.759,64.929 75.059,65.189 75.559,64.689 C75.889,64.359 75.789,64.059 75.319,63.929 C75.119,63.879 74.859,63.829 74.729,63.829 C74.459,63.829 73.799,63.509 73.609,63.279 C73.469,63.109 72.979,62.829 72.829,62.829 C72.779,62.829 72.669,62.909 72.579,63.009 z" fill="#000000"/>
    <path d="M141.639,63.979 C141.359,64.169 141.339,64.579 141.589,64.719 C141.879,64.869 143.249,65.099 143.749,65.079 C144.269,65.059 144.609,64.819 144.609,64.479 C144.609,64.059 144.339,63.959 143.059,63.889 C142.049,63.829 141.819,63.849 141.639,63.979 z" fill="#000000"/>
    <path d="M156.63,65.949 C156.559,66.019 156.509,66.099 156.509,66.139 C156.509,66.179 156.19,66.759 155.799,67.439 C154.63,69.469 153.37,72.179 152.69,74.129 C152.38,75.029 152.109,77.129 152.24,77.649 C152.33,78.009 152.57,78.229 152.859,78.229 C153.28,78.229 153.38,78.009 153.44,76.959 C153.49,75.999 153.749,74.659 153.899,74.499 C153.949,74.449 154.049,74.589 154.14,74.799 C154.22,75.009 154.43,75.469 154.59,75.829 C155.48,77.749 155.659,78.519 155.649,80.429 C155.64,81.979 155.64,81.979 155.23,83.199 C154.78,84.509 154.749,84.679 154.92,84.779 C155.24,84.989 155.88,84.479 156.27,83.709 C156.72,82.809 156.909,81.889 156.909,80.519 C156.909,78.419 156.64,77.449 155.32,74.699 C154.87,73.769 154.509,72.979 154.509,72.939 C154.509,72.749 155.609,70.289 156.399,68.729 C157.44,66.679 157.57,66.319 157.409,66.029 C157.29,65.799 156.83,65.749 156.63,65.949 z" fill="#000000"/>
    <path d="M76.459,67.539 C74.569,68.519 73.769,69.139 72.959,70.279 C72.309,71.189 71.939,72.219 72.209,72.379 C72.449,72.529 72.749,72.259 73.319,71.399 C74.169,70.119 74.669,69.629 76.119,68.669 C77.499,67.759 77.639,67.629 77.589,67.359 C77.539,67.069 77.299,67.109 76.459,67.539 z" fill="#000000"/>
    <path d="M78.809,68.569 C78.809,69.189 80.489,70.489 82.249,71.229 C84.099,72.009 85.719,72.329 87.809,72.329 C89.479,72.319 90.719,72.159 92.769,71.679 C95.049,71.139 95.899,70.669 95.599,70.109 C95.489,69.909 95.109,69.869 94.949,70.029 C94.889,70.089 94.619,70.179 94.349,70.219 C94.079,70.269 92.939,70.469 91.809,70.679 C89.939,71.019 89.589,71.049 87.859,71.059 C85.729,71.069 84.979,70.959 83.309,70.379 C82.069,69.939 81.229,69.559 80.249,68.989 C79.179,68.349 79.129,68.329 78.959,68.329 C78.869,68.329 78.809,68.419 78.809,68.569 z" fill="#000000"/>
    <path d="M138.34,69.089 C138.299,69.199 138.649,69.609 139.49,70.459 C141.64,72.629 142.859,74.329 143.769,76.399 C143.99,76.919 144.08,77.029 144.269,77.029 C144.49,77.029 144.509,76.989 144.509,76.599 C144.509,75.849 143.559,74.009 142.549,72.779 C141.259,71.209 140.33,70.179 139.84,69.759 C138.859,68.929 138.469,68.759 138.34,69.089 z" fill="#000000"/>
    <path d="M77.039,70.099 C75.479,71.399 74.889,71.979 74.469,72.619 C73.479,74.099 72.649,76.689 72.729,78.029 C72.759,78.509 72.789,78.579 72.979,78.609 C73.269,78.649 73.419,78.309 73.709,76.929 C74.079,75.179 74.749,73.589 75.529,72.619 C75.699,72.409 76.259,71.869 76.769,71.419 C77.889,70.439 78.249,70.009 78.159,69.729 C78.059,69.399 77.749,69.499 77.039,70.099 z" fill="#000000"/>
    <path d="M118.319,69.709 C118.269,69.809 118.259,69.939 118.299,70.009 C118.469,70.289 122.669,71.969 124.44,72.469 C125.809,72.859 127.89,73.129 129.499,73.129 C130.869,73.129 131.219,73.089 132.119,72.869 C132.69,72.729 133.429,72.459 133.759,72.279 C134.799,71.709 135.779,70.719 135.649,70.389 C135.559,70.149 135.359,70.189 134.609,70.639 C132.919,71.639 131.759,71.929 129.44,71.929 C126.759,71.929 125.149,71.619 121.54,70.419 C119.829,69.859 118.719,69.529 118.509,69.529 C118.459,69.529 118.369,69.609 118.319,69.709 z" fill="#000000"/>
    <path d="M136.94,71.089 C136.87,71.279 136.98,71.379 139.24,73.409 C141.899,75.799 143.499,78.249 144.159,80.929 C144.48,82.249 144.859,82.349 144.859,81.099 C144.84,78.379 141.79,74.059 137.97,71.349 C137.34,70.899 137.04,70.829 136.94,71.089 z" fill="#000000"/>
    <path d="M142.779,84.099 C142.629,84.239 142.729,84.629 143.109,85.519 C143.579,86.599 144.049,88.259 144.199,89.329 C144.409,90.849 144.44,93.409 144.269,94.399 C143.999,95.959 143.959,96.689 144.14,96.759 C144.749,96.989 145.309,94.859 145.309,92.259 C145.309,90.709 145.209,89.769 144.89,88.329 C144.369,85.929 143.219,83.649 142.779,84.099 z" fill="#000000"/>
    <path d="M76.699,93.259 C76.179,93.599 75.909,94.229 75.909,95.079 C75.909,95.889 76.069,96.229 76.699,96.739 C76.929,96.919 77.079,97.089 77.029,97.119 C76.759,97.299 76.819,97.599 77.309,98.439 C77.959,99.569 78.389,100.509 78.909,101.979 C79.789,104.469 80.939,107.499 81.239,108.129 C81.479,108.609 81.609,108.779 81.759,108.779 C82.199,108.779 82.049,107.789 81.339,105.949 C81.089,105.299 80.489,103.719 79.999,102.429 C78.969,99.729 78.529,98.749 77.879,97.809 C77.489,97.249 77.449,97.149 77.639,97.219 C78.119,97.399 78.969,97.219 79.059,96.919 C79.159,96.619 78.869,96.359 78.329,96.279 C77.759,96.199 77.149,95.899 77.009,95.639 C76.879,95.379 76.879,94.839 77.019,94.439 C77.089,94.229 77.259,94.059 77.509,93.929 C77.979,93.689 78.059,93.479 77.809,93.229 C77.549,92.969 77.119,92.979 76.699,93.259 z" fill="#000000"/>
    <path d="M80.799,93.499 C80.539,93.799 80.649,95.399 81.049,97.379 C81.679,100.459 82.139,101.999 82.539,102.279 C82.979,102.589 83.029,101.959 82.659,100.719 C82.259,99.409 81.899,97.749 81.419,95.089 C81.359,94.759 81.309,94.279 81.309,94.019 C81.309,93.649 81.269,93.509 81.119,93.439 C80.979,93.359 80.899,93.369 80.799,93.499 z" fill="#000000"/>
    <path d="M136.169,98.009 C136.139,98.059 136.009,98.519 135.869,99.039 C135.509,100.419 135.339,100.829 133.859,103.809 C132.569,106.419 131.909,107.989 131.909,108.479 C131.909,108.599 131.969,108.759 132.049,108.819 C132.379,109.099 132.739,108.639 133.609,106.779 C133.949,106.059 134.619,104.689 135.109,103.729 C136.269,101.419 136.679,100.339 136.799,99.329 C136.909,98.319 136.839,97.989 136.489,97.949 C136.349,97.929 136.199,97.959 136.169,98.009 z" fill="#000000"/>
    <path d="M88.329,61.139 C87.099,61.749 86.979,63.519 88.109,64.269 C88.669,64.639 89.549,64.639 90.109,64.269 C91.259,63.509 91.119,61.689 89.859,61.119 C89.329,60.869 88.849,60.879 88.329,61.139 z" fill="#000000"/>
    <path d="M94.879,109.199 C94.669,109.409 94.849,109.669 95.539,110.099 L96.259,110.559 L95.509,111.319 C95.099,111.749 94.699,112.209 94.619,112.359 C94.489,112.599 94.489,112.649 94.629,112.799 C94.779,112.949 94.819,112.949 95.139,112.789 C95.619,112.569 95.659,112.589 95.419,112.889 C95.169,113.199 95.159,113.359 95.349,113.519 C95.449,113.599 95.469,113.759 95.439,114.029 C95.389,114.399 95.399,114.419 95.769,114.579 C95.989,114.669 96.289,114.719 96.449,114.699 C96.639,114.669 96.799,114.719 96.929,114.849 C97.149,115.069 97.349,115.079 97.549,114.879 C97.679,114.749 97.699,114.769 97.759,115.059 C97.909,115.749 98.349,115.919 98.839,115.449 C98.999,115.299 99.149,115.219 99.169,115.279 C99.319,115.669 99.709,116.199 99.919,116.319 C100.159,116.449 100.219,116.439 100.599,116.259 L101.019,116.049 L101.279,116.469 C101.729,117.199 101.999,117.289 102.489,116.879 L102.789,116.629 L102.909,116.939 C103.099,117.399 103.399,117.729 103.629,117.729 C103.739,117.729 103.989,117.569 104.179,117.369 C104.479,117.039 104.539,117.019 104.689,117.149 C104.969,117.389 105.169,117.419 105.449,117.279 C105.699,117.149 105.729,117.149 105.829,117.389 C106.029,117.829 106.709,117.799 106.859,117.329 C106.919,117.129 106.919,117.129 107.199,117.339 C107.569,117.609 108.089,117.619 108.309,117.359 C108.429,117.199 108.519,117.179 108.649,117.249 C108.949,117.419 109.289,117.249 109.509,116.829 C109.739,116.389 109.729,116.389 110.199,116.529 C110.609,116.639 110.879,116.519 111.039,116.149 C111.129,115.939 111.229,115.879 111.459,115.879 C111.709,115.879 111.769,115.829 111.809,115.589 C111.849,115.369 111.929,115.269 112.139,115.219 C112.479,115.129 112.699,114.869 112.709,114.569 C112.709,114.369 112.759,114.349 113.429,114.369 C114.09,114.379 114.169,114.359 114.259,114.159 C114.34,113.969 114.44,113.929 115.009,113.909 C115.659,113.879 115.659,113.879 115.659,113.579 C115.659,113.319 115.549,113.219 114.719,112.669 L113.789,112.049 L114.269,111.799 C114.969,111.449 115.949,110.689 116.359,110.189 C116.669,109.809 116.799,109.529 116.669,109.529 C116.649,109.529 115.759,109.959 114.69,110.479 C111.809,111.889 110.069,112.329 107.369,112.329 C103.379,112.329 99.419,111.349 95.799,109.469 C95.109,109.119 94.989,109.079 94.879,109.199 z" fill="#000000"/>
    <path d="M128.909,173.739 C128.909,173.809 129.149,174.129 129.439,174.469 C129.729,174.809 130.189,175.349 130.449,175.679 C131.199,176.609 131.519,176.959 131.569,176.899 C131.659,176.819 131.259,176.109 130.799,175.519 C129.639,174.039 128.909,173.349 128.909,173.739 z" fill="#000000"/>
    <path d="M106.679,174.889 C106.069,175.499 104.239,177.689 103.869,178.249 C103.729,178.459 103.729,178.519 103.839,178.609 C103.939,178.699 104.059,178.629 104.379,178.299 C104.729,177.939 106.379,175.859 107.239,174.709 C107.699,174.089 107.369,174.189 106.679,174.889 z" fill="#000000"/>
    <path d="M108.509,175.199 C108.059,175.689 107.439,176.449 107.139,176.909 C106.539,177.829 105.909,179.079 105.909,179.359 C105.909,179.739 106.169,179.439 106.689,178.469 C107.329,177.279 108.129,176.149 108.989,175.229 C109.329,174.849 109.609,174.499 109.609,174.439 C109.609,174.159 109.259,174.399 108.509,175.199 z" fill="#000000"/>
    <path d="M112.829,177.799 C111.809,179.239 110.909,180.889 110.909,181.329 C110.909,181.599 111.119,181.359 111.459,180.699 C111.959,179.749 112.789,178.419 113.359,177.649 C113.839,176.999 113.899,176.829 113.669,176.829 C113.589,176.829 113.219,177.269 112.829,177.799 z" fill="#000000"/>
    <path d="M116.74,177.289 C116.669,177.489 116.759,178.639 116.949,179.829 C117.029,180.349 117.149,181.409 117.209,182.179 C117.34,183.829 117.419,184.249 117.599,184.309 C117.819,184.379 117.69,180.889 117.419,179.429 C117.299,178.799 117.179,178.049 117.14,177.759 C117.079,177.239 116.859,176.979 116.74,177.289 z" fill="#000000"/>
    <path d="M95.999,168.999 C94.979,170.069 94.059,171.209 93.589,171.989 C93.139,172.739 93.039,173.029 93.249,173.029 C93.339,173.029 93.669,172.629 93.999,172.139 C94.739,171.039 95.409,170.219 96.429,169.159 C97.159,168.399 97.309,168.129 96.969,168.129 C96.899,168.129 96.459,168.519 95.999,168.999 z" fill="#000000"/>
    <path d="M125.159,61.399 C124.499,61.749 124.009,62.439 124.009,63.029 C124.009,63.659 124.459,64.389 125.029,64.689 C125.439,64.899 126.359,64.869 126.799,64.619 C127.389,64.289 127.659,63.809 127.659,63.079 C127.659,62.569 127.609,62.389 127.379,62.039 C126.899,61.319 125.869,61.019 125.159,61.399 z" fill="#000000"/>
  </g>
</svg>
